<svg viewBox="0 0 435 53" version="1.1" xmlns="http://www.w3.org/2000/svg" xmlns:xlink="http://www.w3.org/1999/xlink">
    <defs>
        <linearGradient x1="63.9700526%" y1="100%" x2="36.4122945%" y2="0%" id="linearGradient-ld1m9lga8w-1">
            <stop stop-color="#88D3CE" offset="0%"></stop>
            <stop stop-color="#6E45E2" offset="100%"></stop>
        </linearGradient>
        <linearGradient x1="68.424198%" y1="97.741661%" x2="32.0800547%" y2="2.25833897%" id="linearGradient-ld1m9lga8w-2">
            <stop stop-color="#88D3CE" offset="0%"></stop>
            <stop stop-color="#6E45E2" offset="100%"></stop>
        </linearGradient>
        <linearGradient x1="60.1372765%" y1="100%" x2="40.1401711%" y2="0%" id="linearGradient-ld1m9lga8w-3">
            <stop stop-color="#88D3CE" offset="0%"></stop>
            <stop stop-color="#6E45E2" offset="100%"></stop>
        </linearGradient>
        <linearGradient x1="58.5683878%" y1="100%" x2="41.6661209%" y2="0%" id="linearGradient-ld1m9lga8w-4">
            <stop stop-color="#88D3CE" offset="0%"></stop>
            <stop stop-color="#6E45E2" offset="100%"></stop>
        </linearGradient>
        <linearGradient x1="65.6286263%" y1="100%" x2="34.7991143%" y2="0%" id="linearGradient-ld1m9lga8w-5">
            <stop stop-color="#88D3CE" offset="0%"></stop>
            <stop stop-color="#6E45E2" offset="100%"></stop>
        </linearGradient>
        <linearGradient x1="67.2973156%" y1="100%" x2="33.1760955%" y2="0%" id="linearGradient-ld1m9lga8w-6">
            <stop stop-color="#88D3CE" offset="0%"></stop>
            <stop stop-color="#6E45E2" offset="100%"></stop>
        </linearGradient>
        <linearGradient x1="63.3714416%" y1="100%" x2="36.994522%" y2="0%" id="linearGradient-ld1m9lga8w-7">
            <stop stop-color="#88D3CE" offset="0%"></stop>
            <stop stop-color="#6E45E2" offset="100%"></stop>
        </linearGradient>
        <linearGradient x1="55.7222608%" y1="100%" x2="44.4343521%" y2="0%" id="linearGradient-ld1m9lga8w-8">
            <stop stop-color="#88D3CE" offset="0%"></stop>
            <stop stop-color="#6E45E2" offset="100%"></stop>
        </linearGradient>
        <linearGradient x1="67.2982329%" y1="100%" x2="33.1752033%" y2="0%" id="linearGradient-ld1m9lga8w-9">
            <stop stop-color="#88D3CE" offset="0%"></stop>
            <stop stop-color="#6E45E2" offset="100%"></stop>
        </linearGradient>
    </defs>
    <g id="Page-1" stroke="none" stroke-width="1" fill="none" fill-rule="evenodd">
        <g id="logo" transform="translate(0.000000, -0.000000)" fill-rule="nonzero" stroke="#000000" stroke-width="2">
            <path d="M11.47705,2.296 L11.47705,21.78514 L31.98267,21.78514 L31.98267,2.296 L42.45997,2.296 L42.45997,50.20567 L31.98267,50.20567 L31.98267,29.48948 L11.47706,29.48948 L11.47706,50.20567 L1,50.20567 L1,2.296 L11.47705,2.296 Z" id="Path" fill="url(#linearGradient-ld1m9lga8w-1)"></path>
            <path d="M76.11712,1.072 C83.2669572,1.072 89.7406879,3.90196951 94.4263263,8.4805374 C99.1035572,13.0508899 101.99847,19.3642488 101.99847,26.33909 C101.99847,33.3138812 99.1035963,39.6270531 94.4264193,44.1972467 C89.7407716,48.7757174 83.2670019,51.60557 76.11712,51.60557 C68.9678475,51.60557 62.4942419,48.7756226 57.8086467,44.1970364 C53.1316565,39.6268587 50.23675,33.3137751 50.23675,26.33909 C50.23675,19.3643549 53.1316956,13.0510843 57.8087397,8.48074769 C62.4943255,3.9020643 68.9678922,1.072 76.11712,1.072 Z M76.11712,11.65147 C71.9755654,11.65147 68.2272171,13.2935185 65.5135789,15.9452212 C62.7913886,18.6052808 61.1098,22.2806922 61.1098,26.33909 C61.1098,30.3973667 62.7915365,34.0727212 65.5137191,36.7327966 C68.2275108,39.3846726 71.9759688,41.02683 76.11712,41.02683 C80.2591034,41.02683 84.0076317,39.3848023 86.7213735,36.7331607 C89.4437741,34.0730583 91.12542,30.3975601 91.12542,26.33909 C91.12542,22.2806292 89.4437785,18.6051664 86.7213845,15.9450939 C84.0076426,13.2934753 80.25911,11.65147 76.11712,11.65147 Z" id="Shape" fill="url(#linearGradient-ld1m9lga8w-2)"></path>
            <path d="M127.21375,2.296 C129.610496,2.296 133.917183,2.60803411 136.916103,5.38587322 C138.824404,7.15349444 140.15271,9.93041919 140.15271,14.20738 C140.15271,16.4212448 139.67319,18.4123079 138.834399,20.0506903 C138.041954,21.5985456 136.929646,22.8291953 135.60441,23.6135697 L135.336555,23.764456 L132.532349,25.2654554 L135.690973,25.6391732 C137.609228,25.8661347 140.395985,26.800965 142.363822,29.2003717 C143.759898,30.9026227 144.72437,33.3363494 144.72437,36.73667 C144.72437,39.7593587 143.75551,43.8173984 140.443774,46.6798535 C138.09137,48.7131231 134.575105,50.1184409 129.467859,50.2017445 L128.98438,50.20566 L109.70313,50.20566 L109.70313,2.296 L127.21375,2.296 Z M124.09009,29.59239 L120.17969,29.59239 L120.17969,42.16295 L125.06946,42.16295 L125.465782,42.1592925 C127.833322,42.1152244 130.005481,41.6697214 131.532088,40.6491936 C133.025426,39.650906 133.97571,38.1318004 133.97571,35.87767 C133.97571,33.5582244 132.989161,32.0137585 131.309418,31.0146261 C129.614625,30.0065417 127.108396,29.59239 124.09009,29.59239 L124.09009,29.59239 Z M120.18042,10.3003215 L120.18042,21.94578 L123.64087,21.94578 L123.802317,21.9444374 C124.980507,21.925048 127.14235,21.683402 128.675235,20.4354344 C129.747575,19.5624103 130.56409,18.2245186 130.56409,16.12351 C130.56409,14.0582324 129.761147,12.7288828 128.703466,11.853828 C127.125336,10.548188 124.871197,10.3124936 123.745269,10.3010432 L123.745269,10.3010432 L120.18042,10.3003215 Z" id="Shape" fill="url(#linearGradient-ld1m9lga8w-3)"></path>
            <path d="M169.96375,2.296 C172.360496,2.296 176.667183,2.60803411 179.666103,5.38587322 C181.574404,7.15349444 182.90271,9.93041919 182.90271,14.20738 C182.90271,16.4212448 182.42319,18.4123079 181.584399,20.0506903 C180.791954,21.5985456 179.679646,22.8291953 178.35441,23.6135697 L178.086555,23.764456 L175.282349,25.2654554 L178.440973,25.6391732 C180.359228,25.8661347 183.145985,26.800965 185.113822,29.2003717 C186.509898,30.9026227 187.47437,33.3363494 187.47437,36.73667 C187.47437,39.7593587 186.50551,43.8173984 183.193774,46.6798535 C180.84137,48.7131231 177.325105,50.1184409 172.217859,50.2017445 L171.73438,50.20566 L152.45313,50.20566 L152.45313,2.296 L169.96375,2.296 Z M166.84009,29.59239 L162.92969,29.59239 L162.92969,42.16295 L167.81946,42.16295 L168.215782,42.1592925 C170.583322,42.1152244 172.755481,41.6697214 174.282088,40.6491936 C175.775426,39.650906 176.72571,38.1318004 176.72571,35.87767 C176.72571,33.5582244 175.739161,32.0137585 174.059418,31.0146261 C172.364625,30.0065417 169.858396,29.59239 166.84009,29.59239 L166.84009,29.59239 Z M162.93042,10.3003215 L162.93042,21.94578 L166.39087,21.94578 L166.552317,21.9444374 C167.730507,21.925048 169.89235,21.683402 171.425235,20.4354344 C172.497575,19.5624103 173.31409,18.2245186 173.31409,16.12351 C173.31409,14.0582324 172.511147,12.7288828 171.453466,11.853828 C169.875336,10.548188 167.621197,10.3124936 166.495269,10.3010432 L166.495269,10.3010432 L162.93042,10.3003215 Z" id="Shape" fill="url(#linearGradient-ld1m9lga8w-3)"></path>
            <path d="M210.62791,1 C217.156074,1 222.441234,3.4201293 224.374834,4.43765028 L224.374834,4.43765028 L220.297756,12.6454356 C218.729148,11.5984997 215.559256,9.76929 212.55956,9.76929 C210.730667,9.76929 209.023921,10.1778884 207.833018,11.1016015 C206.740609,11.9489188 206.02294,13.2155424 206.02294,15.0637187 C206.022938,16.6639678 206.745711,17.8377612 207.998915,18.7693868 C209.362927,19.7833868 211.432837,20.4870588 213.749855,21.2462328 C217.113061,22.3481918 221.050836,23.5909825 223.704733,26.585838 C225.514597,28.6282241 226.690296,31.4975602 226.69041,35.67614 C226.69041,40.7208428 224.861612,44.5203895 221.961048,47.1296839 C218.592306,50.1601431 213.819824,51.58898 208.88963,51.58898 C201.235938,51.58898 195.105665,47.9784619 193.117545,46.6564369 L193.117545,46.6564369 L197.513785,38.171638 C201.019154,41.1781832 205.995153,42.60583 208.88963,42.60583 C210.617181,42.60583 212.213503,41.9480777 213.388595,40.9421263 C214.661061,39.8528159 215.42674,38.3653064 215.42674,36.86572 C215.42674,34.9509005 214.63033,33.5904042 213.309554,32.533002 C211.793996,31.3196594 209.503895,30.5381059 206.992585,29.7142705 C203.73369,28.6451895 200.062511,27.4887597 197.598353,24.7521189 C195.906575,22.8732658 194.82322,20.2359988 194.82322,16.38501 C194.82322,11.5127096 196.438529,7.80993091 199.047678,5.26594225 C202.000453,2.38691011 206.19233,1 210.62791,1 L210.62791,1 Z" id="Path" fill="url(#linearGradient-ld1m9lga8w-4)"></path>
            <path d="M257.43176,1 C262.25224,1 266.603311,2.23992264 270.267769,4.41214147 C273.794124,6.50249526 276.683227,9.45471416 278.744879,12.9846852 L278.744879,12.9846852 L268.349844,17.3816427 C267.243613,15.3178387 265.753568,13.5983628 263.972697,12.3642394 C262.012698,11.0059817 259.699688,10.23071 257.1422,10.23071 C253.036135,10.23071 249.757336,11.9656158 247.463672,14.7857631 C245.080011,17.7165646 243.76647,21.8508446 243.76647,26.44714 C243.76647,31.0430412 245.080042,35.1771581 247.463764,38.1078714 C249.757423,40.9278551 253.036191,42.66272 257.1422,42.66272 C259.697218,42.66272 262.018417,41.8766031 263.98771,40.4993883 C265.777088,39.2479954 267.276392,37.5045671 268.385418,35.4138771 L268.385418,35.4138771 L278.865857,39.6571475 C276.807466,43.2541856 273.8985,46.267037 270.34844,48.4026767 C266.655529,50.6242528 262.270161,51.89502 257.43176,51.89502 C249.849165,51.89502 243.777708,49.2556505 239.536861,44.9201315 C234.995661,40.2775545 232.56213,33.7125936 232.56213,26.44788 C232.56213,19.1828265 234.995634,12.6177068 239.536794,7.97504032 C243.777643,3.63939815 249.849124,1 257.43176,1 L257.43176,1 Z" id="Path" fill="url(#linearGradient-ld1m9lga8w-5)"></path>
            <path d="M310.11712,1.072 C317.266957,1.072 323.740688,3.90196951 328.426326,8.4805374 C333.103557,13.0508899 335.99847,19.3642488 335.99847,26.33909 C335.99847,33.3138812 333.103596,39.6270531 328.426419,44.1972467 C323.740772,48.7757174 317.267002,51.60557 310.11712,51.60557 C302.967848,51.60557 296.494242,48.7756226 291.808647,44.1970364 C287.131657,39.6268587 284.23675,33.3137751 284.23675,26.33909 C284.23675,19.3643549 287.131696,13.0510843 291.80874,8.48074769 C296.494326,3.9020643 302.967892,1.072 310.11712,1.072 Z M310.11712,11.65147 C305.975565,11.65147 302.227217,13.2935185 299.513579,15.9452212 C296.791389,18.6052808 295.1098,22.2806922 295.1098,26.33909 C295.1098,30.3973667 296.791536,34.0727212 299.513719,36.7327966 C302.227511,39.3846726 305.975969,41.02683 310.11712,41.02683 C314.259103,41.02683 318.007632,39.3848023 320.721373,36.7331607 C323.443774,34.0730583 325.12542,30.3975601 325.12542,26.33909 C325.12542,22.2806292 323.443779,18.6051664 320.721385,15.9450939 C318.007643,13.2934753 314.25911,11.65147 310.11712,11.65147 Z" id="Shape" fill="url(#linearGradient-ld1m9lga8w-2)"></path>
            <path d="M345.52604,40.168 C347.049562,40.168 348.427267,40.8078514 349.42511,41.8376662 C350.434233,42.8791226 351.05583,44.3185685 351.05583,45.90701 C351.05583,47.4955572 350.434242,48.9350641 349.425121,49.9765571 C348.427279,51.0064094 347.049569,51.64627 345.52604,51.64627 C344.00251,51.64627 342.624799,51.0064109 341.626957,49.9765584 C340.617837,48.9350666 339.99625,47.4955604 339.99625,45.90701 C339.99625,44.3185685 340.617847,42.8791226 341.62697,41.8376662 C342.624813,40.8078514 344.002518,40.168 345.52604,40.168 Z" id="Path" fill="url(#linearGradient-ld1m9lga8w-6)"></path>
            <path d="M376.56189,2.296 C381.179467,2.296 388.16589,4.50282444 393.207467,9.77465789 C396.837177,13.5701431 399.443299,18.9646258 399.44849,26.2728299 C399.443299,33.5826969 396.837185,38.9773255 393.207479,42.7728988 C388.277939,47.9277055 381.489019,50.152095 376.873191,50.2484112 L376.56189,50.25169 L364.136656,50.2517172 L358.89063,50.2130194 L358.89063,2.296 L376.56189,2.296 Z M373.40723,11.35752 L369.36792,11.35752 L369.36792,41.19089 L373.40723,41.19089 L373.839693,41.1862046 C378.138818,41.092637 381.669638,39.6019036 384.163217,37.094846 C386.75477,34.4892848 388.243648,30.7661765 388.249029,26.2754682 C388.243648,21.7823086 386.754774,18.0591732 384.16323,15.4535962 C381.58653,12.8629448 377.902284,11.35752 373.40723,11.35752 L373.40723,11.35752 Z" id="Shape" fill="url(#linearGradient-ld1m9lga8w-7)"></path>
            <path d="M418.736815,2.29598137 L433.08032,2.38354395 L433.08032,11.48069 L417.74292,11.48069 L417.74292,41.11448 L433.08032,41.11448 L433.08032,50.20567 L407.26563,50.20567 L407.26563,2.296 L418.736815,2.29598137 Z" id="Path" fill="url(#linearGradient-ld1m9lga8w-8)"></path>
            <path d="M428.09009,20.55381 C429.613459,20.55381 430.991147,21.1936719 431.988988,22.2235443 C432.998038,23.2649849 433.61963,24.7044121 433.61963,26.29295 C433.61963,27.8814724 432.998049,29.3208594 431.989012,30.3622661 C430.991167,31.3921223 429.613468,32.03196 428.09009,32.03196 C426.566397,32.03196 425.188521,31.3921556 424.190573,30.3623076 C423.181424,29.3209012 422.55982,27.8814935 422.55982,26.29295 C422.55982,24.7043878 423.181433,23.2649405 424.190594,22.2235016 C425.18854,21.1936371 426.566406,20.55381 428.09009,20.55381 Z" id="Path" fill="url(#linearGradient-ld1m9lga8w-9)"></path>
        </g>
    </g>
</svg>